<svg fill="#ef4141" height="300px" width="300px" version="1.1" id="Layer_1" xmlns="http://www.w3.org/2000/svg" xmlns:xlink="http://www.w3.org/1999/xlink" viewBox="0 0 512 512" xml:space="preserve" stroke="#ef4141"><g id="SVGRepo_bgCarrier" stroke-width="0"></g><g id="SVGRepo_tracerCarrier" stroke-linecap="round" stroke-linejoin="round"></g><g id="SVGRepo_iconCarrier"> <g> <g> <path d="M471.149,49.021H40.851C18.325,49.021,0,67.347,0,89.872v234.213c0,4.513,3.658,8.17,8.17,8.17s8.17-3.657,8.17-8.17 V89.872c0-13.515,10.995-24.511,24.511-24.511h430.298c13.515,0,24.511,10.996,24.511,24.511v266.894 c0,13.515-10.996,24.511-24.511,24.511H305.021c-2.571,0-4.994,1.21-6.536,3.268L256,441.191l-42.485-56.647 c-1.544-2.058-3.964-3.268-6.536-3.268H40.851c-13.516,0-24.511-10.996-24.511-24.511c0-4.513-3.658-8.17-8.17-8.17 S0,352.253,0,356.766c0,22.526,18.325,40.851,40.851,40.851h162.043l46.57,62.094c1.544,2.058,3.964,3.268,6.536,3.268 c2.571,0,4.994-1.21,6.536-3.268l46.57-62.094h162.043c22.526,0,40.851-18.325,40.851-40.851V89.872 C512,67.347,493.675,49.021,471.149,49.021z"></path> </g> </g> <g> <g></g> </g> <g> <g></g> </g> <g> <g> </g> </g> </g></svg>